<?xml version="1.0" encoding="UTF-8"?>
<svg id="_レイヤー_2" data-name="レイヤー 2" xmlns="http://www.w3.org/2000/svg" viewBox="0 0 116.36 66.74">
  <defs>
    <style>
      .cls-1 {
        fill: #fff;
      }

      .cls-2 {
        fill: #d40e19;
      }
    </style>
  </defs>
  <g id="_レイヤー_1-2" data-name="レイヤー 1">
    <g>
      <g>
        <path class="cls-1" d="M20.84,53.87l-4.59,12.61h1.9l1.34-3.69h5.17l1.34,3.69h1.9l-4.59-12.61h-2.47ZM20.13,61.03l1.95-5.35,1.95,5.35h-3.89Z"/>
        <path class="cls-1" d="M81.99,53.87l-4.59,12.61h1.9l1.34-3.69h5.17l1.34,3.69h1.9l-4.59-12.61h-2.47ZM81.28,61.03l1.95-5.35,1.95,5.35h-3.89Z"/>
        <path class="cls-1" d="M107.99,53.87h-2.47l-4.59,12.61h1.9l1.34-3.69h5.17l1.34,3.69h1.9l-4.59-12.61ZM104.81,61.03l1.95-5.35,1.95,5.35h-3.89Z"/>
        <polygon class="cls-1" points="72.75 63.04 70.29 53.87 70.29 53.87 68.45 53.87 68.45 53.87 65.99 63.04 63.53 53.87 61.69 53.87 65.07 66.48 65.07 66.48 66.91 66.48 66.91 66.48 69.37 57.32 71.82 66.48 71.82 66.48 73.67 66.48 73.67 66.48 77.05 53.87 75.2 53.87 72.75 63.04"/>
        <polygon class="cls-1" points="14.96 53.87 12.19 53.87 5.58 59.42 5.58 53.87 3.78 53.87 3.78 66.48 5.58 66.48 5.58 60.93 12.19 66.48 14.96 66.48 7.45 60.18 14.96 53.87"/>
        <polygon class="cls-1" points="99.44 53.87 94.99 60.07 90.54 53.87 88.35 53.87 94.11 61.89 94.11 66.48 95.87 66.48 95.87 61.91 101.64 53.87 99.44 53.87"/>
        <polygon class="cls-1" points="51.29 59.28 44.57 59.28 44.57 53.87 42.82 53.87 42.82 66.48 44.57 66.48 44.57 61.03 51.29 61.03 51.29 66.48 53.04 66.48 53.04 53.87 51.29 53.87 51.29 59.28"/>
        <rect class="cls-1" x="56.71" y="53.87" width="1.76" height="12.61"/>
        <path class="cls-1" d="M34.93,59.09c-2.86-.48-3.38-1.13-3.38-2.16,0-1.26,1.17-1.88,2.98-1.88,2.66,0,3.19,1.14,3.45,1.99h1.81c-.14-1.27-1.11-3.42-5.21-3.42-2.75,0-4.85,1.27-4.85,3.48,0,1.72.91,2.91,4.7,3.55,3.25.55,3.94,1.31,3.94,2.55,0,1.17-.95,2.13-3.43,2.13s-3.56-1.04-4.02-2.51h-1.82c.41,2.32,2.19,3.93,5.71,3.93,3.79,0,5.4-1.72,5.4-3.73,0-1.74-.73-3.16-5.28-3.93Z"/>
      </g>
      <g>
        <path class="cls-2" d="M73.08,7.73c.96-1.44,2.37-1.98,2.37-1.98,0,0-7.43,0-7.44,0-1.62,0-3.39.66-4.27,1.98l-20.49,30.55c-.96,1.44-2.37,1.98-2.37,1.98,0,0,7.43,0,7.44,0,1.62,0,3.39-.66,4.27-1.98l20.49-30.55Z"/>
        <path class="cls-1" d="M56.55,14.29l4.4-6.55c.96-1.44,2.37-1.98,2.37-1.98,0,0-7.43,0-7.44,0-1.62,0-3.39.66-4.27,1.98l-3.67,5.47-12.37,18.39c-3.06,4.56-8.01,6.61-12.52,6.61-4.04,0-7.83-1.49-10.71-4.37-2.88-2.88-4.52-6.72-4.52-10.66,0-8.88,7.08-15.36,15.23-15.36,3.44,0,6.37,1.19,8.41,2.58l10.94,6.92,4.36-6.5-10.95-6.97c-3.77-2.5-8.19-3.83-12.75-3.83-6.29,0-12.23,2.54-16.43,6.86C2.33,11.27,0,16.86,0,23.16c0,12.47,10.35,22.85,23.05,22.85s18.4-9.22,18.66-9.61l14.83-22.12Z"/>
        <path class="cls-1" d="M59.81,31.73l-4.4,6.55c-.96,1.44-2.37,1.98-2.37,1.98,0,0,7.43,0,7.44,0,1.62,0,3.39-.66,4.27-1.98l3.67-5.47,12.37-18.39c3.06-4.56,8.01-6.61,12.52-6.61,4.04,0,7.83,1.49,10.71,4.37,2.88,2.88,4.52,6.72,4.52,10.66,0,8.88-7.08,15.36-15.23,15.36-3.44,0-6.37-1.19-8.41-2.58l-10.94-6.92-4.36,6.5,10.95,6.97c3.77,2.5,8.19,3.83,12.75,3.83,6.29,0,12.23-2.54,16.43-6.86,4.28-4.41,6.62-10,6.62-16.3C116.36,10.38,106.01,0,93.31,0s-18.4,9.22-18.66,9.61l-14.83,22.12Z"/>
      </g>
    </g>
  </g>
</svg>